<svg xmlns="http://www.w3.org/2000/svg" aria-hidden="true" style="position:absolute;width:0;height:0;overflow:hidden"><defs><symbol id="icon-twitter" viewBox="0 0 32 32"><path fill="#edfffc" d="M32 16c0 8.837-7.163 16-16 16S0 24.837 0 16 7.163 0 16 0s16 7.163 16 16z" style="fill:var(--color1, #edfffc)"/><path fill="none" stroke="#02897a" stroke-linecap="round" stroke-linejoin="round" stroke-width="1.6" d="M24.8 8.808a8.717 8.717 0 0 1-2.512 1.224 3.583 3.583 0 0 0-6.287 2.399v.8a8.524 8.524 0 0 1-7.2-3.624s-3.2 7.2 4 10.4a9.316 9.316 0 0 1-5.6 1.6c7.2 4 16 0 16-9.2a3.608 3.608 0 0 0-.064-.664 6.177 6.177 0 0 0 1.664-2.936v0z" style="stroke:var(--color2, #02897a)"/></symbol><symbol id="icon-facebook" viewBox="0 0 32 32"><path fill="#edfffc" d="M32 16c0 8.837-7.163 16-16 16S0 24.837 0 16 7.163 0 16 0s16 7.163 16 16z" style="fill:var(--color1, #edfffc)"/><path fill="none" stroke="#02897a" stroke-linecap="round" stroke-linejoin="round" stroke-width="1.6" d="M20.8 8h-2.4a4.003 4.003 0 0 0-4 4v2.4H12v3.2h2.4V24h3.2v-6.4H20l.8-3.2h-3.2V12a.8.8 0 0 1 .8-.8h2.4V8z" style="stroke:var(--color2, #02897a)"/></symbol><symbol id="icon-instagram" viewBox="0 0 32 32"><path fill="#edfffc" d="M32 16c0 8.837-7.163 16-16 16S0 24.837 0 16 7.163 0 16 0s16 7.163 16 16z" style="fill:var(--color1, #edfffc)"/><path fill="none" stroke="#02897a" stroke-linecap="round" stroke-linejoin="round" stroke-width="1.6" d="M20 8h-8a4 4 0 0 0-4 4v8a4 4 0 0 0 4 4h8a4 4 0 0 0 4-4v-8a4 4 0 0 0-4-4z" style="stroke:var(--color2, #02897a)"/><path fill="none" stroke="#02897a" stroke-linecap="round" stroke-linejoin="round" stroke-width="1.6" d="M19.2 15.496a3.197 3.197 0 0 1-1.727 3.328 3.197 3.197 0 0 1-3.701-.596 3.202 3.202 0 0 1 .788-5.103 3.197 3.197 0 0 1 3.736.578c.485.486.802 1.114.903 1.793zM20.4 11.6h.008" style="stroke:var(--color2, #02897a)"/></symbol><symbol id="icon-checkmark-blue" viewBox="0 0 33 32"><path fill="#4d8dff" d="M12.667 1.333h6.726c6.259 0 11.333 5.074 11.333 11.333v6.667c0 6.259-5.074 11.333-11.333 11.333h-6.726c-6.259 0-11.333-5.074-11.333-11.333v-6.667c0-6.259 5.074-11.333 11.333-11.333z" style="fill:var(--color3, #4d8dff)"/><path fill="none" stroke="#fff" stroke-width="2.667" d="M12.667 1.333h6.726c6.259 0 11.333 5.074 11.333 11.333v6.667c0 6.259-5.074 11.333-11.333 11.333h-6.726c-6.259 0-11.333-5.074-11.333-11.333v-6.667c0-6.259 5.074-11.333 11.333-11.333z" style="stroke:var(--color4, #fff)"/><path fill="none" stroke="#4d8dff" stroke-width="2.667" d="M12.667 1.333h6.726c6.259 0 11.333 5.074 11.333 11.333v6.667c0 6.259-5.074 11.333-11.333 11.333h-6.726c-6.259 0-11.333-5.074-11.333-11.333v-6.667c0-6.259 5.074-11.333 11.333-11.333z" style="stroke:var(--color3, #4d8dff)"/><path fill="#fff" d="M23.601 11.19a.722.722 0 0 0-1.036 0l-8.779 8.949-3.375-3.44c-.286-.292-.75-.292-1.036 0s-.286.765 0 1.056l3.893 3.968a.723.723 0 0 0 1.036 0l9.297-9.478a.757.757 0 0 0 0-1.056z" style="fill:var(--color4, #fff)"/></symbol><symbol id="icon-checkmark-red" viewBox="0 0 33 32"><path fill="#f03e3d" d="M12.667 1.333h6.726c6.259 0 11.333 5.074 11.333 11.333v6.667c0 6.259-5.074 11.333-11.333 11.333h-6.726c-6.259 0-11.333-5.074-11.333-11.333v-6.667c0-6.259 5.074-11.333 11.333-11.333z" style="fill:var(--color5, #f03e3d)"/><path fill="none" stroke="#fff" stroke-width="2.667" d="M12.667 1.333h6.726c6.259 0 11.333 5.074 11.333 11.333v6.667c0 6.259-5.074 11.333-11.333 11.333h-6.726c-6.259 0-11.333-5.074-11.333-11.333v-6.667c0-6.259 5.074-11.333 11.333-11.333z" style="stroke:var(--color4, #fff)"/><path fill="none" stroke="#f03e3d" stroke-width="2.667" d="M12.667 1.333h6.726c6.259 0 11.333 5.074 11.333 11.333v6.667c0 6.259-5.074 11.333-11.333 11.333h-6.726c-6.259 0-11.333-5.074-11.333-11.333v-6.667c0-6.259 5.074-11.333 11.333-11.333z" style="stroke:var(--color5, #f03e3d)"/><path fill="#fff" d="M23.601 11.19a.722.722 0 0 0-1.036 0l-8.779 8.949-3.375-3.44c-.286-.292-.75-.292-1.036 0s-.286.765 0 1.056l3.893 3.968a.723.723 0 0 0 1.036 0l9.297-9.478a.757.757 0 0 0 0-1.056z" style="fill:var(--color4, #fff)"/></symbol><symbol id="icon-checkmark-yellow" viewBox="0 0 33 32"><path fill="#f90" d="M12.667 1.333h6.726c6.259 0 11.333 5.074 11.333 11.333v6.667c0 6.259-5.074 11.333-11.333 11.333h-6.726c-6.259 0-11.333-5.074-11.333-11.333v-6.667c0-6.259 5.074-11.333 11.333-11.333z" style="fill:var(--color6, #f90)"/><path fill="none" stroke="#fff" stroke-width="2.667" d="M12.667 1.333h6.726c6.259 0 11.333 5.074 11.333 11.333v6.667c0 6.259-5.074 11.333-11.333 11.333h-6.726c-6.259 0-11.333-5.074-11.333-11.333v-6.667c0-6.259 5.074-11.333 11.333-11.333z" style="stroke:var(--color4, #fff)"/><path fill="none" stroke="#f90" stroke-width="2.667" d="M12.667 1.333h6.726c6.259 0 11.333 5.074 11.333 11.333v6.667c0 6.259-5.074 11.333-11.333 11.333h-6.726c-6.259 0-11.333-5.074-11.333-11.333v-6.667c0-6.259 5.074-11.333 11.333-11.333z" style="stroke:var(--color6, #f90)"/><path fill="#fff" d="M23.601 11.19a.722.722 0 0 0-1.036 0l-8.779 8.949-3.375-3.44c-.286-.292-.75-.292-1.036 0s-.286.765 0 1.056l3.893 3.968a.723.723 0 0 0 1.036 0l9.297-9.478a.757.757 0 0 0 0-1.056z" style="fill:var(--color4, #fff)"/></symbol><symbol id="icon-cursor" viewBox="0 0 28 32"><path fill="#02897a" d="M9.806 0h8.258c5.416 0 9.806 4.391 9.806 9.806v8.258c0 5.416-4.39 9.806-9.806 9.806H9.806C4.39 27.87 0 23.48 0 18.064V9.806C0 4.39 4.391 0 9.806 0z" style="fill:var(--color2, #02897a)"/><path fill="#fff" d="m16.576 14.76-4.719-4.719a.275.275 0 0 0-.207-.088.298.298 0 0 0-.111.023.294.294 0 0 0-.184.272v6.931a.296.296 0 0 0 .295.295.29.29 0 0 0 .207-.088l1.438-1.438.88 2.083a.298.298 0 0 0 .387.157l.816-.346a.297.297 0 0 0 .157-.387l-.926-2.194h1.76c.12 0 .226-.074.272-.184a.284.284 0 0 0-.065-.318z" style="fill:var(--color4, #fff)"/></symbol><symbol id="icon-wave" viewBox="0 0 28 32"><path fill="#4d8dff" d="M9.806 0h8.258c5.416 0 9.806 4.391 9.806 9.806v8.258c0 5.416-4.39 9.806-9.806 9.806H9.806C4.39 27.87 0 23.48 0 18.064V9.806C0 4.39 4.391 0 9.806 0z" style="fill:var(--color3, #4d8dff)"/><path fill="#fff" d="m14.184 13.235.604.281.899-.267v-.627c0-1.065-.899-1.917-1.972-1.917-1.069 0-1.972.848-1.972 1.903v2.857c0 .263-.212.47-.47.47s-.47-.207-.47-.47v-1.207H9.291v1.226c0 1.092.885 1.977 1.977 1.977 1.083 0 1.977-.871 1.977-1.949v-2.82c0-.258.212-.47.47-.47s.47.212.47.47v.544zm2.443 1.023v1.267c0 .258-.212.465-.47.465s-.47-.207-.47-.465v-1.244l-.899.267-.604-.281v1.235a1.97 1.97 0 0 0 1.977 1.959 1.977 1.977 0 0 0 1.977-1.977v-1.226h-1.512z" style="fill:var(--color4, #fff)"/></symbol><symbol id="icon-heart" viewBox="0 0 28 32"><path fill="#740a76" d="M9.806 0h8.258c5.416 0 9.806 4.391 9.806 9.806v8.258c0 5.416-4.39 9.806-9.806 9.806H9.806C4.39 27.87 0 23.48 0 18.064V9.806C0 4.39 4.391 0 9.806 0z" style="fill:var(--color7, #740a76)"/><path fill="#fff" d="M13.935 17.622a.289.289 0 0 0 .203-.083l2.871-2.765c.041-.041 1.055-.968 1.055-2.074 0-1.35-.825-2.157-2.203-2.157-.806 0-1.562.636-1.926.995-.364-.359-1.12-.995-1.926-.995-1.378 0-2.203.806-2.203 2.157 0 1.106 1.014 2.032 1.051 2.065l2.876 2.774a.287.287 0 0 0 .203.083z" style="fill:var(--color4, #fff)"/></symbol><symbol id="icon-hourglass" viewBox="0 0 32 32"><path fill="#f03e3d" d="M11.259 0h9.481c6.218 0 11.259 5.041 11.259 11.259v9.481c0 6.218-5.041 11.259-11.259 11.259h-9.481C5.041 31.999 0 26.958 0 20.74v-9.481C0 5.041 5.041 0 11.259 0z" style="fill:var(--color5, #f03e3d)"/><path fill="#fff" d="M19.302 12.106h.508a.167.167 0 0 0 .169-.169v-.339a.167.167 0 0 0-.169-.169h-7.788a.167.167 0 0 0-.169.169v.339c0 .095.074.169.169.169h.508c0 1.958.936 3.376 1.973 4.063-1.037.688-1.973 2.106-1.973 4.064h-.508a.167.167 0 0 0-.169.169v.339c0 .095.074.169.169.169h7.788a.167.167 0 0 0 .169-.169v-.339a.167.167 0 0 0-.169-.169h-.508c0-1.958-.936-3.376-1.974-4.064 1.037-.688 1.974-2.106 1.974-4.063zm-.678 0c0 .772-.175 1.455-.45 2.032h-4.519a4.693 4.693 0 0 1-.45-2.032h5.418zm-.301 6.434h-4.815c.392-1.021 1.095-1.746 1.799-2.032h1.217c.704.286 1.407 1.011 1.799 2.032z" style="fill:var(--color4, #fff)"/></symbol><symbol id="icon-triangle" viewBox="0 0 28 32"><path fill="#02897a" d="M26.088 12.891c2.441 1.354 2.441 4.864 0 6.218L4.933 30.848c-2.37 1.315-5.281-.399-5.281-3.109V4.262c0-2.71 2.911-4.424 5.281-3.109l21.155 11.739z" style="fill:var(--color2, #02897a)"/></symbol></defs></svg>